<svg width="19" height="22" viewBox="0 0 19 22" fill="none" xmlns="http://www.w3.org/2000/svg">
<path d="M18.2327 13.8922L15.3163 10.3489C15.2231 9.18169 14.9639 8.03435 14.5467 6.94224C13.4261 3.99185 11.4451 2.05958 10.364 1.17028C10.0899 0.946843 9.74883 0.824423 9.3969 0.823251C9.04497 0.822079 8.70307 0.942156 8.42745 1.16372C7.33224 2.05208 5.32583 3.98302 4.19404 6.9338C3.76287 8.05059 3.4996 9.22661 3.41302 10.4225L0.557316 13.8922C0.40693 14.0761 0.29983 14.2923 0.244198 14.5243C0.188565 14.7564 0.185865 14.9982 0.236328 15.2315L1.42877 20.6643C1.48532 20.9236 1.60616 21.164 1.78 21.3627C1.95377 21.5615 2.17475 21.7121 2.42205 21.8003C2.66935 21.8885 2.93478 21.9114 3.19327 21.8668C3.45176 21.8222 3.69474 21.7116 3.89921 21.5455L6.57923 19.3747H12.2108L14.8907 21.5455C15.1631 21.7675 15.5021 21.8886 15.8518 21.889C16.0275 21.8888 16.2019 21.8584 16.3675 21.7992C16.6151 21.7118 16.8365 21.5616 17.0105 21.3629C17.1844 21.1643 17.3052 20.9238 17.3612 20.6644L18.5537 15.2315C18.6041 14.9983 18.6015 14.7565 18.5458 14.5243C18.4902 14.2923 18.3831 14.0761 18.2327 13.8922ZM2.93525 20.3254L1.74281 14.8925L3.47182 12.7917C3.69103 14.617 4.30639 16.485 5.31796 18.3954L2.93525 20.3254ZM9.39497 10.3904C9.16611 10.3904 8.94235 10.3216 8.75199 10.1929C8.56164 10.0641 8.41333 9.88106 8.32568 9.66692C8.2381 9.45278 8.21518 9.21716 8.25986 8.98989C8.30446 8.76255 8.41472 8.55372 8.57661 8.38989C8.73849 8.22599 8.94466 8.11435 9.1692 8.06911C9.39373 8.02395 9.62645 8.04716 9.83795 8.13583C10.0494 8.2245 10.2302 8.37474 10.3573 8.56747C10.4846 8.76013 10.5524 8.98669 10.5524 9.21849C10.5524 9.52927 10.4305 9.82739 10.2134 10.0472C9.99636 10.2669 9.70199 10.3904 9.39497 10.3904ZM15.8548 20.3254L13.4677 18.3918C14.4663 16.4679 15.0688 14.5839 15.2754 12.7398L17.0472 14.8925L15.8548 20.3254Z" fill="#D10094"/>
</svg>
